<svg xmlns="http://www.w3.org/2000/svg" xmlns:xlink="http://www.w3.org/1999/xlink" version="1.1" x="0px" y="0px" viewBox="0 0 80 100" style="enable-background:new 0 0 80 80;" xml:space="preserve"><path d="M15.65,20.56c3.64,3.17,5.73,7.75,5.73,12.57v22.75c0,3.08,2.5,5.58,5.58,5.58h21.36c3.08,0,5.58-2.5,5.58-5.58V31.77h3.27  v14.95c0,2.16,1.76,3.91,3.91,3.91S65,48.89,65,46.73V29.8c0-3.23-2.63-5.86-5.86-5.86H53.9v-4.41c0-0.55-0.45-1-1-1H16  c-0.42,0-0.79,0.26-0.94,0.65c-0.15,0.39-0.03,0.83,0.28,1.1L15.65,20.56z M53.9,25.95h5.24c2.13,0,3.86,1.73,3.86,3.86v16.92  c0,1.05-0.86,1.91-1.91,1.91c-1.06,0-1.91-0.86-1.91-1.91V30.77c0-0.55-0.45-1-1-1H53.9V25.95z M51.9,20.54v4.41v5.83v0.39h-3.16  c-0.55,0-1,0.45-1,1s0.45,1,1,1h3.16v4.47h-3.16c-0.55,0-1,0.45-1,1s0.45,1,1,1h3.16v4.47h-3.16c-0.55,0-1,0.45-1,1s0.45,1,1,1h3.16  v4.47h-3.16c-0.55,0-1,0.45-1,1s0.45,1,1,1h3.16v3.3c0,1.97-1.6,3.58-3.58,3.58H26.96c-1.97,0-3.58-1.6-3.58-3.58V33.13  c0-4.69-1.76-9.17-4.89-12.59H51.9z"/><text x="0" y="95" fill="#000000" font-size="5px" font-weight="bold" font-family="'Helvetica Neue', Helvetica, Arial-Unicode, Arial, Sans-serif">Created by Vectorstall</text><text x="0" y="100" fill="#000000" font-size="5px" font-weight="bold" font-family="'Helvetica Neue', Helvetica, Arial-Unicode, Arial, Sans-serif">from the Noun Project</text></svg>