<svg xmlns="http://www.w3.org/2000/svg" xmlns:xlink="http://www.w3.org/1999/xlink" version="1.1" x="0px" y="0px" viewBox="0 0 80 100" style="enable-background:new 0 0 80 80;" xml:space="preserve"><path d="M64,37.67h-2.58c-2.27,0-4.12,1.85-4.12,4.12v0.36H43.62l3.63-3.76c6.9-0.36,13.22-2.24,13.22-5.53  c0-1.57-1.43-2.9-4.13-3.9l4.27-4.43c0.8-0.83,1.21-1.92,1.16-3.07c-0.05-1.15-0.56-2.2-1.43-2.95c-0.87-0.75-1.98-1.1-3.13-0.99  c-1.14,0.11-2.16,0.68-2.87,1.59l-6.4,8.26c-1.02-0.07-2.07-0.11-3.12-0.11c-3.27,0-6.38,0.33-9.01,0.94  c-0.54,0.13-0.87,0.67-0.74,1.2c0.11,0.46,0.52,0.77,0.97,0.77c0.08,0,0.15-0.01,0.23-0.03c2.47-0.58,5.43-0.89,8.55-0.89  c0.55,0,1.09,0.01,1.63,0.03l-5.41,6.99c-2.02-0.17-3.89-0.48-5.47-0.9L36.39,35c0.5-0.23,0.72-0.82,0.49-1.33  c-0.23-0.5-0.83-0.72-1.33-0.49l-3.03,1.39c-0.02,0.01-0.04,0.02-0.06,0.03l-0.02,0.01c-0.01,0.01-0.02,0.02-0.04,0.03  c-0.1,0.05-0.19,0.11-0.26,0.19c-0.03,0.03-0.04,0.06-0.07,0.1c-0.05,0.06-0.1,0.11-0.13,0.18c-0.01,0.01,0,0.03-0.01,0.04  c0,0.01-0.01,0.01-0.01,0.02c-0.02,0.05-0.01,0.09-0.02,0.14c-0.01,0.07-0.04,0.14-0.03,0.21c0,0.07,0.02,0.14,0.04,0.21  c0.01,0.05,0.02,0.11,0.04,0.16c0.01,0.01,0,0.03,0.01,0.04l1.43,3.11c0.17,0.37,0.53,0.58,0.91,0.58c0.14,0,0.28-0.03,0.42-0.09  c0.5-0.23,0.72-0.82,0.49-1.33l-0.45-0.98c1.43,0.41,3.06,0.72,4.83,0.93l-3.09,3.99H22.69v-0.36c0-2.27-1.85-4.12-4.12-4.12H16  c-0.55,0-1,0.45-1,1s0.45,1,1,1h2.58c1.17,0,2.12,0.95,2.12,2.12v14.57c0,3.39,2.76,6.15,6.15,6.15h26.3c3.39,0,6.15-2.76,6.15-6.15  V41.79c0-1.17,0.95-2.12,2.12-2.12H64c0.55,0,1-0.45,1-1S64.55,37.67,64,37.67z M58.46,32.85c0,1.15-3.51,2.77-9.13,3.36l5.47-5.67  C57.3,31.32,58.46,32.26,58.46,32.85z M55.92,20.33c0.36-0.47,0.89-0.76,1.48-0.82c0.59-0.06,1.17,0.12,1.62,0.51  c0.45,0.39,0.71,0.93,0.74,1.53s-0.19,1.16-0.6,1.59L46.35,36.42c-0.5,0.02-1.01,0.03-1.54,0.03c-0.46,0-0.91-0.01-1.36-0.03  L55.92,20.33z M41.96,38.35c0.8,0.05,1.61,0.08,2.45,0.08l-3.57,3.7h-1.81L41.96,38.35z M57.3,56.35c0,2.29-1.86,4.15-4.15,4.15  h-26.3c-2.29,0-4.15-1.86-4.15-4.15V44.14H57.3V56.35z"/><text x="0" y="95" fill="#000000" font-size="5px" font-weight="bold" font-family="'Helvetica Neue', Helvetica, Arial-Unicode, Arial, Sans-serif">Created by Vectorstall</text><text x="0" y="100" fill="#000000" font-size="5px" font-weight="bold" font-family="'Helvetica Neue', Helvetica, Arial-Unicode, Arial, Sans-serif">from the Noun Project</text></svg>