<svg xmlns="http://www.w3.org/2000/svg">
  <defs>
    <!-- Icons go here -->
    <symbol id="icon-cook" viewBox="0 0 80 100">
      <svg xmlns="http://www.w3.org/2000/svg" xmlns:xlink="http://www.w3.org/1999/xlink" version="1.1" x="0px" y="0px" viewBox="0 0 80 100" style="enable-background:new 0 0 80 80;" xml:space="preserve"><path d="M15.69,48.63l3.68,1.2v6.33c0,2.52,2.05,4.57,4.57,4.57h17.04c2.52,0,4.57-2.05,4.57-4.57v-6.33l3.68-1.2  c0.41-0.13,0.69-0.52,0.69-0.95v-3.12c0-0.55-0.45-1-1-1h-4.37H20.37H16c-0.55,0-1,0.45-1,1v3.12C15,48.11,15.28,48.5,15.69,48.63z   M45.55,45.56h2.37v1.4l-2.37,0.78V45.56z M21.37,49.11v-3.55h22.18v3.55v7.05c0,1.42-1.15,2.57-2.57,2.57H23.94  c-1.42,0-2.57-1.15-2.57-2.57V49.11z M17,45.56h2.37v2.17L17,46.95V45.56z"/><path d="M27.89,40.51v-4.89c0-0.55-0.45-1-1-1s-1,0.45-1,1v4.89c0,0.55,0.45,1,1,1S27.89,41.06,27.89,40.51z"/><path d="M33.46,38.19V33.3c0-0.55-0.45-1-1-1s-1,0.45-1,1v4.89c0,0.55,0.45,1,1,1S33.46,38.75,33.46,38.19z"/><path d="M39.04,40.51v-4.89c0-0.55-0.45-1-1-1s-1,0.45-1,1v4.89c0,0.55,0.45,1,1,1S39.04,41.06,39.04,40.51z"/><path d="M63.73,27.84c0.39-0.39,0.39-1.02,0-1.41s-1.02-0.39-1.41,0l-0.67,0.67c-0.74-0.59-1.57-1.06-2.47-1.39  c0.56-0.68,0.91-1.54,0.91-2.49c0-2.18-1.77-3.95-3.95-3.95s-3.95,1.77-3.95,3.95c0,0.95,0.35,1.81,0.91,2.49  c-0.9,0.33-1.74,0.8-2.47,1.39l-0.67-0.67c-0.39-0.39-1.02-0.39-1.41,0s-0.39,1.02,0,1.41l0.67,0.67c-1.21,1.51-1.93,3.43-1.93,5.51  c0,4.88,3.97,8.85,8.85,8.85S65,38.9,65,34.02c0-2.08-0.73-3.99-1.93-5.51L63.73,27.84z M56.15,21.27c1.07,0,1.95,0.87,1.95,1.95  s-0.87,1.95-1.95,1.95s-1.95-0.87-1.95-1.95S55.07,21.27,56.15,21.27z M56.15,40.87c-3.78,0-6.85-3.07-6.85-6.85  c0-3.78,3.07-6.85,6.85-6.85c3.78,0,6.85,3.07,6.85,6.85C63,37.8,59.93,40.87,56.15,40.87z"/><path d="M56.15,29.89c-0.55,0-1,0.45-1,1v3.12c0,0.55,0.45,1,1,1s1-0.45,1-1v-3.12C57.15,30.34,56.7,29.89,56.15,29.89z"/><text x="0" y="95" fill="#000000" font-size="5px" font-weight="bold" font-family="'Helvetica Neue', Helvetica, Arial-Unicode, Arial, Sans-serif">Created by Vectorstall</text><text x="0" y="100" fill="#000000" font-size="5px" font-weight="bold" font-family="'Helvetica Neue', Helvetica, Arial-Unicode, Arial, Sans-serif">from the Noun Project</text></svg>
    </symbol>
    <symbol id="icon-measure" viewBox="0 0 80 100">
      <svg xmlns="http://www.w3.org/2000/svg" xmlns:xlink="http://www.w3.org/1999/xlink" version="1.1" x="0px" y="0px" viewBox="0 0 80 100" style="enable-background:new 0 0 80 80;" xml:space="preserve"><path d="M15.65,20.56c3.64,3.17,5.73,7.75,5.73,12.57v22.75c0,3.08,2.5,5.58,5.58,5.58h21.36c3.08,0,5.58-2.5,5.58-5.58V31.77h3.27  v14.95c0,2.16,1.76,3.91,3.91,3.91S65,48.89,65,46.73V29.8c0-3.23-2.63-5.86-5.86-5.86H53.9v-4.41c0-0.55-0.45-1-1-1H16  c-0.42,0-0.79,0.26-0.94,0.65c-0.15,0.39-0.03,0.83,0.28,1.1L15.65,20.56z M53.9,25.95h5.24c2.13,0,3.86,1.73,3.86,3.86v16.92  c0,1.05-0.86,1.91-1.91,1.91c-1.06,0-1.91-0.86-1.91-1.91V30.77c0-0.55-0.45-1-1-1H53.9V25.95z M51.9,20.54v4.41v5.83v0.39h-3.16  c-0.55,0-1,0.45-1,1s0.45,1,1,1h3.16v4.47h-3.16c-0.55,0-1,0.45-1,1s0.45,1,1,1h3.16v4.47h-3.16c-0.55,0-1,0.45-1,1s0.45,1,1,1h3.16  v4.47h-3.16c-0.55,0-1,0.45-1,1s0.45,1,1,1h3.16v3.3c0,1.97-1.6,3.58-3.58,3.58H26.96c-1.97,0-3.58-1.6-3.58-3.58V33.13  c0-4.69-1.76-9.17-4.89-12.59H51.9z"/><text x="0" y="95" fill="#000000" font-size="5px" font-weight="bold" font-family="'Helvetica Neue', Helvetica, Arial-Unicode, Arial, Sans-serif">Created by Vectorstall</text><text x="0" y="100" fill="#000000" font-size="5px" font-weight="bold" font-family="'Helvetica Neue', Helvetica, Arial-Unicode, Arial, Sans-serif">from the Noun Project</text></svg>
    </symbol>
    <symbol id="icon-mix" viewBox="0 0 80 100">
      <svg xmlns="http://www.w3.org/2000/svg" xmlns:xlink="http://www.w3.org/1999/xlink" version="1.1" x="0px" y="0px" viewBox="0 0 80 100" style="enable-background:new 0 0 80 80;" xml:space="preserve"><path d="M64,37.67h-2.58c-2.27,0-4.12,1.85-4.12,4.12v0.36H43.62l3.63-3.76c6.9-0.36,13.22-2.24,13.22-5.53  c0-1.57-1.43-2.9-4.13-3.9l4.27-4.43c0.8-0.83,1.21-1.92,1.16-3.07c-0.05-1.15-0.56-2.2-1.43-2.95c-0.87-0.75-1.98-1.1-3.13-0.99  c-1.14,0.11-2.16,0.68-2.87,1.59l-6.4,8.26c-1.02-0.07-2.07-0.11-3.12-0.11c-3.27,0-6.38,0.33-9.01,0.94  c-0.54,0.13-0.87,0.67-0.74,1.2c0.11,0.46,0.52,0.77,0.97,0.77c0.08,0,0.15-0.01,0.23-0.03c2.47-0.58,5.43-0.89,8.55-0.89  c0.55,0,1.09,0.01,1.63,0.03l-5.41,6.99c-2.02-0.17-3.89-0.48-5.47-0.9L36.39,35c0.5-0.23,0.72-0.82,0.49-1.33  c-0.23-0.5-0.83-0.72-1.33-0.49l-3.03,1.39c-0.02,0.01-0.04,0.02-0.06,0.03l-0.02,0.01c-0.01,0.01-0.02,0.02-0.04,0.03  c-0.1,0.05-0.19,0.11-0.26,0.19c-0.03,0.03-0.04,0.06-0.07,0.1c-0.05,0.06-0.1,0.11-0.13,0.18c-0.01,0.01,0,0.03-0.01,0.04  c0,0.01-0.01,0.01-0.01,0.02c-0.02,0.05-0.01,0.09-0.02,0.14c-0.01,0.07-0.04,0.14-0.03,0.21c0,0.07,0.02,0.14,0.04,0.21  c0.01,0.05,0.02,0.11,0.04,0.16c0.01,0.01,0,0.03,0.01,0.04l1.43,3.11c0.17,0.37,0.53,0.58,0.91,0.58c0.14,0,0.28-0.03,0.42-0.09  c0.5-0.23,0.72-0.82,0.49-1.33l-0.45-0.98c1.43,0.41,3.06,0.72,4.83,0.93l-3.09,3.99H22.69v-0.36c0-2.27-1.85-4.12-4.12-4.12H16  c-0.55,0-1,0.45-1,1s0.45,1,1,1h2.58c1.17,0,2.12,0.95,2.12,2.12v14.57c0,3.39,2.76,6.15,6.15,6.15h26.3c3.39,0,6.15-2.76,6.15-6.15  V41.79c0-1.17,0.95-2.12,2.12-2.12H64c0.55,0,1-0.45,1-1S64.55,37.67,64,37.67z M58.46,32.85c0,1.15-3.51,2.77-9.13,3.36l5.47-5.67  C57.3,31.32,58.46,32.26,58.46,32.85z M55.92,20.33c0.36-0.47,0.89-0.76,1.48-0.82c0.59-0.06,1.17,0.12,1.62,0.51  c0.45,0.39,0.71,0.93,0.74,1.53s-0.19,1.16-0.6,1.59L46.35,36.42c-0.5,0.02-1.01,0.03-1.54,0.03c-0.46,0-0.91-0.01-1.36-0.03  L55.92,20.33z M41.96,38.35c0.8,0.05,1.61,0.08,2.45,0.08l-3.57,3.7h-1.81L41.96,38.35z M57.3,56.35c0,2.29-1.86,4.15-4.15,4.15  h-26.3c-2.29,0-4.15-1.86-4.15-4.15V44.14H57.3V56.35z"/><text x="0" y="95" fill="#000000" font-size="5px" font-weight="bold" font-family="'Helvetica Neue', Helvetica, Arial-Unicode, Arial, Sans-serif">Created by Vectorstall</text><text x="0" y="100" fill="#000000" font-size="5px" font-weight="bold" font-family="'Helvetica Neue', Helvetica, Arial-Unicode, Arial, Sans-serif">from the Noun Project</text></svg>
    </symbol>
    <symbol id="icon-recipe" viewBox="0 0 80 100">
      <svg xmlns="http://www.w3.org/2000/svg" xmlns:xlink="http://www.w3.org/1999/xlink" version="1.1" x="0px" y="0px" viewBox="0 0 80 100" style="enable-background:new 0 0 80 80;" xml:space="preserve"><path d="M54.03,15H18.09c-0.55,0-1,0.45-1,1v48c0,0.55,0.45,1,1,1h35.93c0.55,0,1-0.45,1-1v-4.34c0-0.55-0.45-1-1-1s-1,0.45-1,1V63  H19.09V17h33.93v18.49c0,0.55,0.45,1,1,1s1-0.45,1-1V16C55.03,15.45,54.58,15,54.03,15z"/><path d="M24.4,25.91h23.31c0.55,0,1-0.45,1-1s-0.45-1-1-1H24.4c-0.55,0-1,0.45-1,1S23.85,25.91,24.4,25.91z"/><path d="M48.72,32.46c0-0.55-0.45-1-1-1H24.4c-0.55,0-1,0.45-1,1s0.45,1,1,1h23.31C48.27,33.46,48.72,33.01,48.72,32.46z"/><path d="M41.61,39H24.4c-0.55,0-1,0.45-1,1s0.45,1,1,1h17.21c0.55,0,1-0.45,1-1S42.17,39,41.61,39z"/><path d="M41.61,46.54H24.4c-0.55,0-1,0.45-1,1s0.45,1,1,1h17.21c0.55,0,1-0.45,1-1S42.17,46.54,41.61,46.54z"/><path d="M41.61,54.09H24.4c-0.55,0-1,0.45-1,1s0.45,1,1,1h17.21c0.55,0,1-0.45,1-1S42.17,54.09,41.61,54.09z"/><path d="M48.29,51.26l0.38,3.92c0.05,0.51,0.48,0.9,1,0.9h8.93c0.52,0,0.95-0.39,1-0.9l0.38-3.92c1.74-0.69,2.94-2.4,2.94-4.31  c0-2.46-1.92-4.48-4.35-4.63c-0.58-1.92-2.35-3.27-4.43-3.27s-3.85,1.35-4.43,3.27c-2.42,0.15-4.35,2.17-4.35,4.63  C45.35,48.86,46.55,50.57,48.29,51.26z M49.99,44.31c0.13,0,0.25,0.01,0.38,0.03c0.27,0.04,0.55-0.04,0.76-0.21  c0.22-0.17,0.35-0.42,0.38-0.69c0.13-1.36,1.25-2.39,2.63-2.39c1.37,0,2.5,1.03,2.63,2.39c0.02,0.27,0.16,0.52,0.38,0.69  c0.22,0.17,0.49,0.24,0.76,0.21c0.12-0.02,0.25-0.03,0.38-0.03c1.45,0,2.64,1.18,2.64,2.64c0,1.23-0.87,2.32-2.08,2.58  c-0.43,0.09-0.74,0.45-0.78,0.88l-0.36,3.68h-7.11l-0.36-3.68c-0.04-0.43-0.36-0.79-0.78-0.88c-1.21-0.26-2.08-1.34-2.08-2.58  C47.35,45.49,48.53,44.31,49.99,44.31z"/><text x="0" y="95" fill="#000000" font-size="5px" font-weight="bold" font-family="'Helvetica Neue', Helvetica, Arial-Unicode, Arial, Sans-serif">Created by Vectorstall</text><text x="0" y="100" fill="#000000" font-size="5px" font-weight="bold" font-family="'Helvetica Neue', Helvetica, Arial-Unicode, Arial, Sans-serif">from the Noun Project</text></svg>
    </symbol>
  </defs>
</svg>