<svg xmlns="http://www.w3.org/2000/svg" xmlns:xlink="http://www.w3.org/1999/xlink" version="1.1" x="0px" y="0px" viewBox="0 0 80 100" style="enable-background:new 0 0 80 80;" xml:space="preserve"><path d="M15.69,48.63l3.68,1.2v6.33c0,2.52,2.05,4.57,4.57,4.57h17.04c2.52,0,4.57-2.05,4.57-4.57v-6.33l3.68-1.2  c0.41-0.13,0.69-0.52,0.69-0.95v-3.12c0-0.55-0.45-1-1-1h-4.37H20.37H16c-0.55,0-1,0.45-1,1v3.12C15,48.11,15.28,48.5,15.69,48.63z   M45.55,45.56h2.37v1.4l-2.37,0.78V45.56z M21.37,49.11v-3.55h22.18v3.55v7.05c0,1.42-1.15,2.57-2.57,2.57H23.94  c-1.42,0-2.57-1.15-2.57-2.57V49.11z M17,45.56h2.37v2.17L17,46.95V45.56z"/><path d="M27.89,40.51v-4.89c0-0.55-0.45-1-1-1s-1,0.45-1,1v4.89c0,0.55,0.45,1,1,1S27.89,41.06,27.89,40.51z"/><path d="M33.46,38.19V33.3c0-0.55-0.45-1-1-1s-1,0.45-1,1v4.89c0,0.55,0.45,1,1,1S33.46,38.75,33.46,38.19z"/><path d="M39.04,40.51v-4.89c0-0.55-0.45-1-1-1s-1,0.45-1,1v4.89c0,0.55,0.45,1,1,1S39.04,41.06,39.04,40.51z"/><path d="M63.73,27.84c0.39-0.39,0.39-1.02,0-1.41s-1.02-0.39-1.41,0l-0.67,0.67c-0.74-0.59-1.57-1.06-2.47-1.39  c0.56-0.68,0.91-1.54,0.91-2.49c0-2.18-1.77-3.95-3.95-3.95s-3.95,1.77-3.95,3.95c0,0.95,0.35,1.81,0.91,2.49  c-0.9,0.33-1.74,0.8-2.47,1.39l-0.67-0.67c-0.39-0.39-1.02-0.39-1.41,0s-0.39,1.02,0,1.41l0.67,0.67c-1.21,1.51-1.93,3.43-1.93,5.51  c0,4.88,3.97,8.85,8.85,8.85S65,38.9,65,34.02c0-2.08-0.73-3.99-1.93-5.51L63.73,27.84z M56.15,21.27c1.07,0,1.95,0.87,1.95,1.95  s-0.87,1.95-1.95,1.95s-1.95-0.87-1.95-1.95S55.07,21.27,56.15,21.27z M56.15,40.87c-3.78,0-6.85-3.07-6.85-6.85  c0-3.78,3.07-6.85,6.85-6.85c3.78,0,6.85,3.07,6.85,6.85C63,37.8,59.93,40.87,56.15,40.87z"/><path d="M56.15,29.89c-0.55,0-1,0.45-1,1v3.12c0,0.55,0.45,1,1,1s1-0.45,1-1v-3.12C57.15,30.34,56.7,29.89,56.15,29.89z"/><text x="0" y="95" fill="#000000" font-size="5px" font-weight="bold" font-family="'Helvetica Neue', Helvetica, Arial-Unicode, Arial, Sans-serif">Created by Vectorstall</text><text x="0" y="100" fill="#000000" font-size="5px" font-weight="bold" font-family="'Helvetica Neue', Helvetica, Arial-Unicode, Arial, Sans-serif">from the Noun Project</text></svg>