<svg xmlns="http://www.w3.org/2000/svg" xmlns:xlink="http://www.w3.org/1999/xlink" version="1.1" x="0px" y="0px" viewBox="0 0 80 100" style="enable-background:new 0 0 80 80;" xml:space="preserve"><path d="M54.03,15H18.09c-0.55,0-1,0.45-1,1v48c0,0.55,0.45,1,1,1h35.93c0.55,0,1-0.45,1-1v-4.34c0-0.55-0.45-1-1-1s-1,0.45-1,1V63  H19.09V17h33.93v18.49c0,0.55,0.45,1,1,1s1-0.45,1-1V16C55.03,15.45,54.58,15,54.03,15z"/><path d="M24.4,25.91h23.31c0.55,0,1-0.45,1-1s-0.45-1-1-1H24.4c-0.55,0-1,0.45-1,1S23.85,25.91,24.4,25.91z"/><path d="M48.72,32.46c0-0.55-0.45-1-1-1H24.4c-0.55,0-1,0.45-1,1s0.45,1,1,1h23.31C48.27,33.46,48.72,33.01,48.72,32.46z"/><path d="M41.61,39H24.4c-0.55,0-1,0.45-1,1s0.45,1,1,1h17.21c0.55,0,1-0.45,1-1S42.17,39,41.61,39z"/><path d="M41.61,46.54H24.4c-0.55,0-1,0.45-1,1s0.45,1,1,1h17.21c0.55,0,1-0.45,1-1S42.17,46.54,41.61,46.54z"/><path d="M41.61,54.09H24.4c-0.55,0-1,0.45-1,1s0.45,1,1,1h17.21c0.55,0,1-0.45,1-1S42.17,54.09,41.61,54.09z"/><path d="M48.29,51.26l0.38,3.92c0.05,0.51,0.48,0.9,1,0.9h8.93c0.52,0,0.95-0.39,1-0.9l0.38-3.92c1.74-0.69,2.94-2.4,2.94-4.31  c0-2.46-1.92-4.48-4.35-4.63c-0.58-1.92-2.35-3.27-4.43-3.27s-3.85,1.35-4.43,3.27c-2.42,0.15-4.35,2.17-4.35,4.63  C45.35,48.86,46.55,50.57,48.29,51.26z M49.99,44.31c0.13,0,0.25,0.01,0.38,0.03c0.27,0.04,0.55-0.04,0.76-0.21  c0.22-0.17,0.35-0.42,0.38-0.69c0.13-1.36,1.25-2.39,2.63-2.39c1.37,0,2.5,1.03,2.63,2.39c0.02,0.27,0.16,0.52,0.38,0.69  c0.22,0.17,0.49,0.24,0.76,0.21c0.12-0.02,0.25-0.03,0.38-0.03c1.45,0,2.64,1.18,2.64,2.64c0,1.23-0.87,2.32-2.08,2.58  c-0.43,0.09-0.74,0.45-0.78,0.88l-0.36,3.68h-7.11l-0.36-3.68c-0.04-0.43-0.36-0.79-0.78-0.88c-1.21-0.26-2.08-1.34-2.08-2.58  C47.35,45.49,48.53,44.31,49.99,44.31z"/><text x="0" y="95" fill="#000000" font-size="5px" font-weight="bold" font-family="'Helvetica Neue', Helvetica, Arial-Unicode, Arial, Sans-serif">Created by Vectorstall</text><text x="0" y="100" fill="#000000" font-size="5px" font-weight="bold" font-family="'Helvetica Neue', Helvetica, Arial-Unicode, Arial, Sans-serif">from the Noun Project</text></svg>